<svg width="400.24000244140626px" height="150.2px" xmlns="http://www.w3.org/2000/svg" viewBox="49.87999877929687 -0.09999999999999432 400.24000244140626 150.2" style="background: rgba(0, 0, 0, 0) none repeat scroll 0% 0%;" preserveAspectRatio="xMidYMid"><defs><filter id="editing-hover" x="-100%" y="-100%" width="300%" height="300%"><feFlood flood-color="#2f2b6b" result="flood"></feFlood><feComposite operator="in" in2="SourceAlpha" in="flood" result="shadow"></feComposite><feOffset dx="0.8" dy="0.1" in="SourceGraphic" result="offset-1"></feOffset><feOffset dx="-0.8" dy="-0.1" in="shadow" result="offset-2"></feOffset><feMerge><feMergeNode in="offset-2"></feMergeNode><feMergeNode in="offset-1"></feMergeNode></feMerge></filter></defs><g filter="url(#editing-hover)"><g transform="translate(110.80000925064087, 105.63749885559082)"><path d="M2.85-24.22L36.23-41.92L36.23-37.27L9.38-22.35L36.23-7.42L36.23-2.77L2.85-20.47L2.85-24.22ZM59.92 1.43L59.92 1.43L59.92 1.43Q49.80 1.43 44.25-1.20L44.25-1.20L44.25-1.20Q44.25-7.88 46.20-14.25L46.20-14.25L46.20-14.25Q46.35-14.25 46.65-14.29L46.65-14.29L46.65-14.29Q46.95-14.32 47.17-14.32L47.17-14.32L47.17-14.32Q48.52-14.32 49.50-13.88L49.50-13.88L50.70-3.90L50.70-3.90Q55.42-2.77 58.80-2.77L58.80-2.77L58.80-2.77Q61.42-2.77 64.20-3.38L64.20-3.38L64.20-3.38Q66.97-3.97 69.04-5.85L69.04-5.85L69.04-5.85Q71.10-7.72 71.10-10.95L71.10-10.95L71.10-10.95Q71.10-13.88 70.24-15.67L70.24-15.67L70.24-15.67Q69.38-17.47 66.26-19.61L66.26-19.61L66.26-19.61Q63.15-21.75 56.55-24.60L56.55-24.60L56.55-24.60Q49.80-27.60 47.06-31.01L47.06-31.01L47.06-31.01Q44.32-34.42 44.47-40.20L44.47-40.20L44.47-40.20Q44.55-46.80 50.02-50.25L50.02-50.25L50.02-50.25Q55.50-53.70 63.75-53.70L63.75-53.70L63.75-53.70Q70.72-53.70 76.50-51.45L76.50-51.45L76.50-51.45Q76.72-45.75 74.17-38.77L74.17-38.77L74.17-38.77Q73.88-38.70 73.20-38.70L73.20-38.70L73.20-38.70Q71.92-38.70 70.88-39.15L70.88-39.15L70.05-49.13L70.05-49.13Q66.67-50.10 63.30-50.10L63.30-50.10L63.30-50.10Q58.35-50.10 55.01-47.96L55.01-47.96L55.01-47.96Q51.67-45.82 51.60-41.48L51.60-41.48L51.60-41.48Q51.52-38.02 53.59-35.85L53.59-35.85L53.59-35.85Q55.65-33.67 62.32-30.67L62.32-30.67L62.32-30.67Q67.20-28.50 69.90-27.04L69.90-27.04L69.90-27.04Q72.60-25.57 74.81-23.59L74.81-23.59L74.81-23.59Q77.02-21.60 78-19.05L78-19.05L78-19.05Q78.97-16.50 78.97-13.05L78.97-13.05L78.97-13.05Q78.82-6.08 73.20-2.32L73.20-2.32L73.20-2.32Q67.57 1.43 59.92 1.43ZM84.97-3.75L84.97-3.75L84.97-3.75Q84.97-5.17 86.62-6.56L86.62-6.56L86.62-6.56Q88.27-7.95 90.00-7.95L90.00-7.95L90.00-7.95Q91.87-7.95 93.15-6.34L93.15-6.34L93.15-6.34Q94.42-4.72 94.42-3.07L94.42-3.07L94.42-3.07Q94.42-1.57 92.81-0.22L92.81-0.22L92.81-0.22Q91.20 1.13 89.32 1.13L89.32 1.13L89.32 1.13Q87.60 1.13 86.29-0.49L86.29-0.49L86.29-0.49Q84.97-2.10 84.97-3.75ZM101.47-3.75L101.47-3.75L101.47-3.75Q101.47-5.17 103.12-6.56L103.12-6.56L103.12-6.56Q104.77-7.95 106.50-7.95L106.50-7.95L106.50-7.95Q108.37-7.95 109.65-6.34L109.65-6.34L109.65-6.34Q110.92-4.72 110.92-3.07L110.92-3.07L110.92-3.07Q110.92-1.57 109.31-0.22L109.31-0.22L109.31-0.22Q107.70 1.13 105.82 1.13L105.82 1.13L105.82 1.13Q104.10 1.13 102.79-0.49L102.79-0.49L102.79-0.49Q101.47-2.10 101.47-3.75ZM117.97-3.75L117.97-3.75L117.97-3.75Q117.97-5.17 119.62-6.56L119.62-6.56L119.62-6.56Q121.27-7.95 123.00-7.95L123.00-7.95L123.00-7.95Q124.87-7.95 126.15-6.34L126.15-6.34L126.15-6.34Q127.42-4.72 127.42-3.07L127.42-3.07L127.42-3.07Q127.42-1.57 125.81-0.22L125.81-0.22L125.81-0.22Q124.20 1.13 122.32 1.13L122.32 1.13L122.32 1.13Q120.60 1.13 119.29-0.49L119.29-0.49L119.29-0.49Q117.97-2.10 117.97-3.75ZM134.47-3.75L134.47-3.75L134.47-3.75Q134.47-5.17 136.13-6.56L136.13-6.56L136.13-6.56Q137.77-7.95 139.50-7.95L139.50-7.95L139.50-7.95Q141.38-7.95 142.65-6.34L142.65-6.34L142.65-6.34Q143.92-4.72 143.92-3.07L143.92-3.07L143.92-3.07Q143.92-1.57 142.31-0.22L142.31-0.22L142.31-0.22Q140.70 1.13 138.82 1.13L138.82 1.13L138.82 1.13Q137.10 1.13 135.79-0.49L135.79-0.49L135.79-0.49Q134.47-2.10 134.47-3.75ZM191.85-18.68L191.77-48.75L186-50.25L186-50.25Q185.77-51.67 186.38-52.88L186.38-52.88L186.38-52.88Q191.25-52.50 193.88-52.50L193.88-52.50L193.88-52.50Q196.72-52.50 202.13-52.88L202.13-52.88L202.13-52.88Q202.35-51.45 201.97-50.25L201.97-50.25L201.97-50.25Q198.07-49.57 195.97-48.75L195.97-48.75L195.97 1.50L195.97 1.50Q195.15 2.02 194.47 2.25L194.47 2.25L164.63-35.63L164.63-35.63Q163.13-37.42 160.20-42.75L160.20-42.75L159.97-42.75L159.97-42.75Q160.35-40.42 160.35-35.40L160.35-35.40L160.35-3.75L166.13-2.17L166.13-2.17Q166.35-0.75 165.75 0.45L165.75 0.45L165.75 0.45Q164.85 0.38 163.27 0.26L163.27 0.26L163.27 0.26Q161.70 0.15 160.39 0.07L160.39 0.07L160.39 0.07Q159.07 0 157.88 0L157.88 0L157.88 0Q157.13 0 150.22 0.38L150.22 0.38L150.22 0.38Q150-1.05 150.38-2.25L150.38-2.25L150.38-2.25Q153.22-2.70 156.22-3.75L156.22-3.75L156.22-48.75L150.45-50.25L150.45-50.25Q150.22-51.67 150.82-52.88L150.82-52.88L150.82-52.88Q157.57-52.50 159.97-52.50L159.97-52.50L162.97-52.50L164.85-48.60L188.02-18.82L188.02-18.82Q189.82-16.50 192.07-11.47L192.07-11.47L192.30-11.47L192.30-11.47Q192.15-13.28 192.07-14.17L192.07-14.17L192.07-14.17Q192-15.07 191.92-16.20L191.92-16.20L191.92-16.20Q191.85-17.32 191.85-18.68L191.85-18.68ZM205.20 7.50L205.20 7.50L230.63-52.50L230.63-52.50Q233.93-53.25 235.65-53.02L235.65-53.02L210.30 6.90L210.30 6.90Q207.75 7.80 205.20 7.50ZM242.17-41.92L275.55-24.22L275.55-20.47L242.17-2.77L242.17-7.42L269.02-22.35L242.17-37.27L242.17-41.92Z" fill="#6c63ff"></path></g></g><style>text {
  font-size: 64px;
  font-family: Arial Black;
  dominant-baseline: central;
  text-anchor: middle;
}</style></svg>